# Blender 4.3.2
# www.blender.org
mtllib colanoorigen.mtl
o Plano
v -2.161160 2.289951 -0.068353
v -2.177781 2.308548 0.145357
v -2.262063 2.508427 0.159539
v -2.245619 2.489944 -0.054207
v -2.863537 2.429222 0.081496
v -2.869889 2.436390 0.165112
v -2.553992 2.293918 0.189219
v -2.537371 2.275321 -0.024491
v -2.548982 2.483418 0.192642
v -2.532488 2.464901 -0.020989
v -3.038612 2.598444 0.153715
v -2.868028 2.510687 0.166556
v -3.043695 2.588326 0.154119
v -2.861550 2.503438 0.082861
v -3.042706 2.587152 0.140535
v -3.037572 2.597239 0.140245
vn -0.9216 -0.3862 -0.0378
vn -0.9217 -0.3860 -0.0381
vn -0.9216 -0.3862 -0.0376
vn 0.4137 0.9092 -0.0467
vn 0.4136 0.9093 -0.0465
vn 0.4137 0.9092 -0.0469
vn -0.0492 0.9947 -0.0904
vn 0.0972 -0.9909 0.0933
vn 0.0973 -0.9909 0.0934
vn 0.0971 -0.9909 0.0932
vn -0.1165 0.0211 -0.9930
vn -0.1169 0.0213 -0.9929
vn -0.1165 0.0212 -0.9930
vn -0.1166 0.0213 -0.9930
vn 0.1168 -0.0208 0.9929
vn 0.1166 -0.0213 0.9929
vn 0.1167 -0.0211 0.9929
vn 0.1168 -0.0209 0.9929
vn 0.0725 0.0056 -0.9974
vn -0.0913 -0.9927 0.0789
vn -0.0914 -0.9927 0.0789
vn -0.0913 -0.9927 0.0790
vn 0.0831 0.0160 -0.9964
vn 0.0832 0.0158 -0.9964
vn 0.0832 0.0160 -0.9964
vn 0.0833 0.0160 -0.9964
vn 0.2934 -0.0321 0.9554
vn 0.2981 -0.0253 0.9542
vn 0.2907 -0.0343 0.9562
vn 0.8895 -0.4442 0.1073
vn 0.8895 -0.4441 0.1073
vn 0.2888 -0.0350 0.9568
vn 0.6586 0.7524 -0.0144
vn 0.6586 0.7524 -0.0145
vn 0.6585 0.7525 -0.0140
vn 0.6585 0.7524 -0.0144
vn -0.4593 -0.8873 0.0415
vn -0.4594 -0.8873 0.0413
vn -0.4594 -0.8873 0.0414
vn -0.4592 -0.8874 0.0416
vt 1.000000 0.000000
vt 1.000000 1.000000
vt 0.000000 1.000000
vt 0.000000 0.000000
s 1
usemtl Goddard_None
f 1/1/1 2/2/2 3/3/1
f 3/3/1 4/4/3 1/1/1
f 5/1/4 6/2/5 7/2/6
f 7/2/6 8/1/6 5/1/4
f 8/1/7 7/2/7 2/2/7
f 2/2/7 1/1/7 8/1/7
f 9/3/8 10/4/9 4/4/8
f 4/4/8 3/3/10 9/3/8
f 7/2/11 9/3/12 3/3/13
f 3/3/13 2/2/14 7/2/11
f 10/4/15 8/1/16 1/1/17
f 1/1/17 4/4/18 10/4/15
f 11/3/19 12/3/19 6/2/19
f 6/2/19 13/2/19 11/3/19
f 12/3/20 14/4/21 10/4/22
f 10/4/22 9/3/22 12/3/20
f 9/3/23 7/2/24 6/2/25
f 6/2/25 12/3/26 9/3/23
f 5/1/27 8/1/28 10/4/28
f 10/4/28 14/4/29 5/1/27
f 11/3/30 13/2/30 15/1/31
f 15/1/31 16/4/30 11/3/30
f 14/4/29 16/4/32 15/1/32
f 15/1/32 5/1/27 14/4/29
f 13/2/33 6/2/34 5/1/35
f 5/1/35 15/1/36 13/2/33
f 16/4/37 14/4/38 12/3/39
f 12/3/39 11/3/40 16/4/37
