# Blender 4.3.2
# www.blender.org
mtllib cola.mtl
o Plano
v 0.074027 -0.144726 -0.122880
v 0.029690 -0.143790 0.087660
v -0.057850 0.054243 0.107049
v -0.013686 0.053422 -0.103541
v -0.643285 -0.018267 -0.054642
v -0.660481 -0.018008 0.027745
v -0.348855 -0.161982 0.080956
v -0.304519 -0.162918 -0.129585
v -0.346357 0.026592 0.100461
v -0.302157 0.025730 -0.110012
v -0.828033 0.144434 0.007804
v -0.659617 0.055917 0.035480
v -0.833017 0.134317 0.006718
v -0.642285 0.055585 -0.046975
v -0.830266 0.134265 -0.006673
v -0.825246 0.144341 -0.005469
vn -0.9048 -0.3818 -0.1886
vn -0.9049 -0.3815 -0.1889
vn -0.9048 -0.3818 -0.1885
vn -0.9048 -0.3818 -0.1884
vn 0.4065 0.9100 0.0819
vn 0.4064 0.9100 0.0820
vn 0.4066 0.9100 0.0816
vn -0.0477 0.9988 -0.0145
vn 0.0949 -0.9952 0.0239
vn 0.0950 -0.9952 0.0240
vn 0.0948 -0.9952 0.0238
vn 0.0128 0.1028 -0.9946
vn 0.0123 0.1029 -0.9946
vn 0.0127 0.1029 -0.9946
vn 0.0127 0.1030 -0.9946
vn -0.0124 -0.1025 0.9947
vn -0.0127 -0.1030 0.9946
vn -0.0125 -0.1028 0.9946
vn -0.0125 -0.1026 0.9946
vn 0.2009 0.0877 -0.9757
vn -0.0902 -0.9958 -0.0149
vn -0.0901 -0.9958 -0.0149
vn -0.0901 -0.9958 -0.0148
vn 0.2112 0.0980 -0.9725
vn 0.2112 0.0978 -0.9725
vn 0.2113 0.0980 -0.9725
vn 0.2114 0.0980 -0.9725
vn 0.1677 -0.1106 0.9796
vn 0.1724 -0.1038 0.9795
vn 0.1649 -0.1129 0.9798
vn 0.8728 -0.4515 0.1852
vn 0.8728 -0.4515 0.1853
vn 0.1629 -0.1137 0.9801
vn 0.6468 0.7510 0.1327
vn 0.6469 0.7510 0.1327
vn 0.6467 0.7511 0.1331
vn 0.6468 0.7511 0.1327
vn -0.4513 -0.8877 -0.0911
vn -0.4513 -0.8877 -0.0913
vn -0.4514 -0.8877 -0.0912
vn -0.4512 -0.8878 -0.0910
vt 1.000000 0.000000
vt 1.000000 1.000000
vt 0.000000 1.000000
vt 0.000000 0.000000
s 1
usemtl Goddard_None
f 1/1/1 2/2/2 3/3/3
f 3/3/3 4/4/4 1/1/1
f 5/1/5 6/2/6 7/2/7
f 7/2/7 8/1/7 5/1/5
f 8/1/8 7/2/8 2/2/8
f 2/2/8 1/1/8 8/1/8
f 9/3/9 10/4/10 4/4/9
f 4/4/9 3/3/11 9/3/9
f 7/2/12 9/3/13 3/3/14
f 3/3/14 2/2/15 7/2/12
f 10/4/16 8/1/17 1/1/18
f 1/1/18 4/4/19 10/4/16
f 11/3/20 12/3/20 6/2/20
f 6/2/20 13/2/20 11/3/20
f 12/3/21 14/4/21 10/4/22
f 10/4/22 9/3/23 12/3/21
f 9/3/24 7/2/25 6/2/26
f 6/2/26 12/3/27 9/3/24
f 5/1/28 8/1/29 10/4/29
f 10/4/29 14/4/30 5/1/28
f 11/3/31 13/2/32 15/1/32
f 15/1/32 16/4/32 11/3/31
f 14/4/30 16/4/33 15/1/33
f 15/1/33 5/1/28 14/4/30
f 13/2/34 6/2/35 5/1/36
f 5/1/36 15/1/37 13/2/34
f 16/4/38 14/4/39 12/3/40
f 12/3/40 11/3/41 16/4/38
