# Blender 4.3.2
# www.blender.org
mtllib cuerpo.mtl
o Cube
v -1.681964 0.038611 -1.156525
v -1.681964 0.038611 1.314275
v 1.186235 1.257211 1.314275
v 1.186235 1.257211 -1.156525
v -1.088964 -1.376689 1.314275
v 1.779235 -0.157989 1.314275
v -1.088964 -1.376689 -1.156525
v 1.779235 -0.157989 -1.156525
vn -0.3910 0.9204 -0.0000
vn -0.0000 -0.0000 1.0000
vn -0.9223 -0.3864 -0.0000
vn 0.3911 -0.9204 -0.0000
vn 0.9223 0.3865 -0.0000
vn -0.0000 -0.0000 -1.0000
vt 0.875000 0.500000
vt 0.875000 0.750000
vt 0.625000 0.750000
vt 0.625000 0.500000
vt 0.625000 1.000000
vt 0.375000 1.000000
vt 0.375000 0.750000
vt 0.625000 0.000000
vt 0.625000 0.250000
vt 0.375000 0.250000
vt 0.375000 0.000000
vt 0.375000 0.500000
vt 0.125000 0.750000
vt 0.125000 0.500000
s 1
usemtl Goddard_Material
f 1/1/1 2/2/1 3/3/1
f 3/3/1 4/4/1 1/1/1
f 3/3/2 2/5/2 5/6/2
f 5/6/2 6/7/2 3/3/2
f 2/8/3 1/9/3 7/10/3
f 7/10/3 5/11/3 2/8/3
f 8/12/4 6/7/4 5/13/4
f 5/13/4 7/14/4 8/12/4
f 4/4/5 3/3/5 6/7/5
f 6/7/5 8/12/5 4/4/5
f 1/9/6 4/4/6 8/12/6
f 8/12/6 7/10/6 1/9/6
